<?xml version="1.0" encoding="UTF-8"?>
<svg id="Layer_2" data-name="Layer 2" xmlns="http://www.w3.org/2000/svg" viewBox="0 0 199.31 199.31">
  <defs>
    <style>
      .cls-1 {
        fill: #fff;
      }

      .cls-1, .cls-2 {
        stroke-width: 0px;
      }

      .cls-2 {
        fill: #111;
      }
    </style>
  </defs>
  <g id="objects">
    <g>
      <path class="cls-1" d="m199.31,99.65c0,55.04-44.62,99.65-99.65,99.65h0C44.62,199.31,0,154.69,0,99.65h0C0,44.62,44.62,0,99.65,0h0c55.04,0,99.65,44.62,99.65,99.65h0Z"/>
      <path class="cls-2" d="m129.18,91.92l-1.66,13.33c-.28,2.23-2.17,3.9-4.4,3.9h-21.59v55.74c-2.28.21-4.59.31-6.92.31-5.21,0-10.31-.52-15.23-1.51v-54.54h-16.61c-1.52,0-2.77-1.25-2.77-2.78v-16.68c0-1.53,1.24-2.78,2.77-2.78h16.61v-25.02c0-15.35,12.4-27.8,27.69-27.8h19.38c1.52,0,2.77,1.25,2.77,2.78v16.68c0,1.53-1.24,2.78-2.77,2.78h-13.84c-6.11,0-11.07,4.98-11.07,11.12v19.46h23.25c2.67,0,4.73,2.35,4.4,5Z"/>
    </g>
  </g>
</svg>