<?xml version="1.0" encoding="UTF-8"?>
<svg id="Layer_2" data-name="Layer 2" xmlns="http://www.w3.org/2000/svg" viewBox="0 0 199.31 199.31">
  <defs>
    <style>
      .cls-1 {
        fill: #fff;
      }

      .cls-1, .cls-2 {
        stroke-width: 0px;
      }

      .cls-2 {
        fill: #111;
      }
    </style>
  </defs>
  <g id="objects">
    <g>
      <path class="cls-1" d="m199.31,99.65c0,55.04-44.62,99.65-99.65,99.65h0C44.62,199.31,0,154.69,0,99.65h0C0,44.62,44.62,0,99.65,0h0c55.04,0,99.65,44.62,99.65,99.65h0Z"/>
      <path class="cls-2" d="m126.69,47.38h-54.07c-13.93,0-25.23,11.3-25.23,25.23v54.07c0,13.93,11.3,25.23,25.23,25.23h54.07c13.93,0,25.23-11.3,25.23-25.23v-54.07c0-13.93-11.3-25.23-25.23-25.23Zm16.22,77.51c0,9.95-8.08,18.02-18.02,18.02h-50.47c-9.95,0-18.02-8.08-18.02-18.02v-50.47c0-9.95,8.08-18.02,18.02-18.02h50.47c9.95,0,18.02,8.08,18.02,18.02v50.47Z"/>
      <path class="cls-2" d="m99.71,72.62c-14.92,0-27.04,12.11-27.04,27.04s12.11,27.04,27.04,27.04,27.04-12.11,27.04-27.04-12.11-27.04-27.04-27.04Zm0,45.06c-9.93,0-18.02-8.09-18.02-18.02s8.09-18.02,18.02-18.02,18.02,8.09,18.02,18.02-8.09,18.02-18.02,18.02Z"/>
      <circle class="cls-2" cx="128.55" cy="70.81" r="5.41"/>
    </g>
  </g>
</svg>